<svg id=":Vimmer_" xmlns="http://www.w3.org/2000/svg" viewBox="0 0 1246.442 414.889"><title>Vimmer</title><g id="colon"><rect x="112.921" y="253.12" width="21.95" height="24.995" fill="#4d4d4d"/><rect x="112.921" y="186.636" width="21.95" height="24.995" fill="#4d4d4d"/></g><polygon id="V" points="308.058 112.921 245.888 301.968 219.244 301.968 158.724 112.921 186.002 112.921 233.074 269.107 280.145 112.921 308.058 112.921" fill="#1a1a1a"/><g id="i"><rect x="331.911" y="112.921" width="24.995" height="21.95" fill="#1a1a1a"/><rect x="331.911" y="162.784" width="24.995" height="139.184" fill="#1a1a1a"/></g><path id="m" d="M565.492,301.968H540.5v-84.5q0-14.337.381-21.823a35.327,35.327,0,0,0-.634-7.422,16.577,16.577,0,0,0-2.791-5.9q-2.16-3.045-7.105-4.5a45.938,45.938,0,0,0-12.688-1.459,79.629,79.629,0,0,0-14.274,1.078,33.267,33.267,0,0,0-9.262,2.918,12.933,12.933,0,0,0-5.392,5.265,21.282,21.282,0,0,0-2.474,7.169,66.731,66.731,0,0,0-.571,9.706q0,2.791.19,9.96t0.19,11.609v77.9H461.072V211.124q0-8.628-.127-12.371a69.394,69.394,0,0,0-.952-8.755q-0.827-5.012-2.411-6.788A22.308,22.308,0,0,0,452.7,179.4a19,19,0,0,0-7.993-2.538,115.153,115.153,0,0,0-11.926-.508,63.363,63.363,0,0,0-8.691.571,44.334,44.334,0,0,0-7.93,1.84,15.6,15.6,0,0,0-6.217,3.679,8.272,8.272,0,0,0-2.538,5.709q-1.649,16.875-1.649,37.048v76.761H380.759V162.784H403.6l2.411,15.225A29.833,29.833,0,0,1,420.6,163.418q9.516-4.311,24.107-4.314,14.337,0,22.838,4.568t12.434,14.972q10.15-19.793,40.093-19.793a110.534,110.534,0,0,1,16.684,1.078,35.881,35.881,0,0,1,12.117,4,26.794,26.794,0,0,1,8.31,6.978,32,32,0,0,1,5.012,10.848,80.942,80.942,0,0,1,2.6,14.908q0.7,8.12.7,19.92v85.388Z" fill="#4d4d4d"/><path id="m2" d="M774.078,301.968H749.083v-84.5q0-14.337.381-21.823a35.327,35.327,0,0,0-.634-7.422,16.577,16.577,0,0,0-2.791-5.9q-2.16-3.045-7.105-4.5a45.938,45.938,0,0,0-12.688-1.459,79.629,79.629,0,0,0-14.274,1.078,33.267,33.267,0,0,0-9.262,2.918,12.933,12.933,0,0,0-5.392,5.265,21.282,21.282,0,0,0-2.474,7.169,66.731,66.731,0,0,0-.571,9.706q0,2.791.19,9.96t0.19,11.609v77.9H669.658V211.124q0-8.628-.127-12.371A69.394,69.394,0,0,0,668.58,190q-0.827-5.012-2.411-6.788a22.308,22.308,0,0,0-4.885-3.806,19,19,0,0,0-7.993-2.538,115.153,115.153,0,0,0-11.926-.508,63.363,63.363,0,0,0-8.691.571,44.334,44.334,0,0,0-7.93,1.84,15.6,15.6,0,0,0-6.217,3.679,8.272,8.272,0,0,0-2.538,5.709q-1.649,16.875-1.649,37.048v76.761H589.345V162.784h22.838l2.411,15.225a29.833,29.833,0,0,1,14.591-14.591q9.516-4.311,24.107-4.314,14.337,0,22.838,4.568t12.434,14.972q10.15-19.793,40.093-19.793a110.534,110.534,0,0,1,16.684,1.078,35.881,35.881,0,0,1,12.117,4,26.794,26.794,0,0,1,8.31,6.978,32,32,0,0,1,5.012,10.848,80.942,80.942,0,0,1,2.6,14.908q0.7,8.12.7,19.92v85.388Z" fill="gray"/><path id="e" d="M910.852,229.648q-15.225,1.523-18.9,1.776H822.8q0.124,18.4,1.015,40.347,0.634,8.5,7.3,11.229t25.946,2.728a116.087,116.087,0,0,0,12.434-.571,28.345,28.345,0,0,0,8.437-2.03A29.462,29.462,0,0,0,883,280.335a7.829,7.829,0,0,0,2.728-4.187,29.449,29.449,0,0,0,1.142-4.821q0.254-1.967.508-5.963t0.634-6.534l19.412,3.553a114.452,114.452,0,0,1-1.269,15.035,36.675,36.675,0,0,1-3.426,10.848,23.211,23.211,0,0,1-5.709,7.422,26.386,26.386,0,0,1-8.881,4.5,56.249,56.249,0,0,1-12.307,2.347q-6.724.571-16.621,0.571a145.934,145.934,0,0,1-22.077-1.459,104.787,104.787,0,0,1-16.05-3.616,24.285,24.285,0,0,1-10.975-7.042,54.062,54.062,0,0,1-6.788-9.325q-2.474-4.441-3.616-13.068t-1.459-15.669q-0.317-7.042-.317-19.476,0-17.509.444-27.279a124.87,124.87,0,0,1,2.474-19.6q2.027-9.83,5.456-14.274a33.321,33.321,0,0,1,10.15-8.247,41.848,41.848,0,0,1,15.86-4.885,204.99,204.99,0,0,1,23.219-1.078q9.77,0,16.875.571a63.6,63.6,0,0,1,13.068,2.347,44.57,44.57,0,0,1,9.833,4.06,21.546,21.546,0,0,1,6.851,6.724,38.107,38.107,0,0,1,4.568,9.2,69.262,69.262,0,0,1,2.6,12.624q1.015,7.869,1.269,15.923T910.852,229.648ZM822.926,218.1h62.931q-0.254-16.24-1.269-29.689-0.508-7.737-6.661-10.34t-22.521-2.6q-18.143,0-22.965,2.03a8.679,8.679,0,0,0-3.743,2.22,11.711,11.711,0,0,0-2.6,4.5,50.076,50.076,0,0,0-1.586,5.456,49.542,49.542,0,0,0-.888,7.042q-0.317,4.5-.444,6.978t-0.19,7.549Q822.923,216.326,822.926,218.1Z" fill="gray"/><path id="r" d="M996.748,159.612L995.733,180.8a70.158,70.158,0,0,0-9.135-.634,49.311,49.311,0,0,0-14.591,1.776,15.273,15.273,0,0,0-8.437,6.09,25.419,25.419,0,0,0-3.806,9.833,90.925,90.925,0,0,0-.952,14.781q0,5.2.444,15.225t0.444,14.337v59.759H934.7V162.784h22.711l2.538,15.606a30.433,30.433,0,0,1,11.926-14.147q7.993-5.012,19.158-5.012A44.125,44.125,0,0,1,996.748,159.612Z" fill="gray"/><rect id="caret" x="1020.601" y="276.973" width="112.921" height="24.995" fill="#4d4d4d"/></svg>