<svg xmlns="http://www.w3.org/2000/svg" version="1.1" viewBox="0 0 1240 412" class="v_logo"><rect fill="none" width="1240" height="412" class="v_background"/><path fill="#999999" d="M771,300h-25v-84.363c0-9.562,0.087-16.838,0.339-21.832c0-3.046-0.23-5.521-0.65-7.425  c-0.422-1.904-1.355-3.871-2.785-5.902c-1.431-2.031-3.789-3.533-7.068-4.506c-3.279-0.971-7.488-1.46-12.616-1.46  c-5.634,0-10.365,0.361-14.191,1.079c-3.828,0.719-6.896,1.694-9.208,2.919c-2.314,1.227-4.1,2.983-5.361,5.268  c-1.261,2.285-2.081,4.677-2.46,7.172c-0.378,2.496-0.568,5.733-0.568,9.71c0,1.862,0.158,5.185,0.284,9.964  c0.126,4.781,0.284,8.652,0.284,11.614V300h-24v-88.932c0-0.423,0-1.015,0-1.777c0-5.754-0.562-9.879-0.645-12.376  c-0.084-2.495-0.659-5.414-1.205-8.758c-0.548-3.342-1.475-5.604-2.526-6.791c-1.053-1.185-2.735-2.454-4.921-3.808  c-2.188-1.352-4.869-2.2-7.979-2.539c-3.111-0.337-7.08-0.508-11.873-0.508c-3.027,0-5.917,0.19-8.648,0.571  c-2.733,0.381-5.365,0.996-7.887,1.84c-2.523,0.846-4.587,2.075-6.182,3.681c-1.598,1.608-2.426,3.512-2.508,5.712  C612.532,197.571,612,209.926,612,223.38V300h-25V161h22.825l2.396,15.197c3.362-6.854,8.199-11.737,14.505-14.614  c6.307-2.875,14.295-4.324,23.965-4.324c9.502,0,17.07,1.519,22.704,4.565c5.632,3.046,9.754,8.038,12.361,14.976  c6.727-13.201,20.011-19.802,39.858-19.802c6.475,0,12.002,0.361,16.586,1.078c4.583,0.719,8.596,2.052,12.046,3.998  c3.448,1.948,6.2,4.273,8.262,6.981c2.06,2.71,3.721,6.327,4.982,10.852c1.261,4.527,2.238,9.5,2.701,14.914  c0.461,5.416,0.809,12.058,0.809,19.928V300z" class="v_m2"/><path fill="#999999" d="M907,227.386c-10.067,1.015-16.318,1.614-18.751,1.614h-68.584c0.082,13,0.419,25.872,1.007,40.504  c0.419,5.666,2.831,9.49,7.236,11.308c4.405,1.82,12.983,2.768,25.735,2.768c4.782,0,8.893-0.17,12.333-0.551  s6.229-1.047,8.369-2.02c2.139-0.971,3.817-1.898,5.034-2.786c1.216-0.888,2.118-2.281,2.706-4.184  c0.587-1.903,0.965-3.507,1.133-4.819c0.168-1.311,0.336-3.298,0.503-5.962c0.168-2.664,0.378-4.84,0.629-6.533l19.254,3.552  c-0.168,5.92-0.587,10.931-1.258,15.033c-0.671,4.104-1.804,7.719-3.398,10.846c-1.594,3.129-3.482,5.603-5.663,7.421  c-2.181,1.82-5.118,3.319-8.809,4.504c-3.691,1.184-7.76,1.966-12.207,2.347c-4.446,0.381-9.942,0.571-16.485,0.571  c-8.39,0-15.688-0.488-21.897-1.459c-6.21-0.971-11.515-2.176-15.919-3.615c-4.405-1.438-8.035-3.785-10.885-7.041  c-2.852-3.254-5.097-6.362-6.733-9.324c-1.636-2.96-2.831-7.314-3.587-13.066c-0.755-5.751-1.239-10.973-1.447-15.667  c-0.21-4.694-0.315-11.183-0.315-19.473c0-11.671,0.145-20.761,0.44-27.275c0.294-6.512,1.112-13.045,2.454-19.6  c1.341-6.553,3.146-11.31,5.411-14.272c2.265-2.96,5.619-5.709,10.067-8.246c4.446-2.537,9.69-4.165,15.73-4.884  c6.04-0.717,13.717-1.078,23.029-1.078c6.46,0,12.039,0.19,16.737,0.571c4.698,0.381,9.019,1.163,12.962,2.347  c3.943,1.186,7.194,2.537,9.753,4.059c2.559,1.522,4.824,3.763,6.795,6.724c1.972,2.962,3.482,6.026,4.53,9.197  c1.049,3.171,1.909,7.379,2.58,12.622c0.671,5.245,1.091,10.469,1.258,15.84C906.916,212.732,907,219.352,907,227.386z M819.779,216  h62.443c-0.168-11-0.588-20.925-1.259-29.908c-0.336-5.168-2.539-8.704-6.609-10.441c-4.07-1.736-11.519-2.646-22.346-2.646  c-12.002,0-19.597,0.66-22.786,2.014c-1.429,0.426-2.665,1.155-3.714,2.215c-1.051,1.061-1.909,2.559-2.581,4.508  c-0.673,1.951-1.196,3.769-1.574,5.464c-0.378,1.697-0.673,4.047-0.881,7.054c-0.21,3.009-0.358,5.338-0.441,6.991  c-0.084,1.653-0.147,4.337-0.189,7.725C819.798,212.364,819.779,215,819.779,216z" class="v_e"/><path fill="#999999" d="M992,157.321l-1.009,21.197c-3.195-0.423-6.222-0.635-9.081-0.635  c-5.97,0-10.805,0.592-14.505,1.777c-3.7,1.186-6.496,3.217-8.388,6.093c-1.892,2.877-3.153,6.156-3.784,9.837  c-0.631,3.681-0.946,8.612-0.946,14.787c0,3.471,0.562,8.548,0.856,15.232c0.294,6.685,0.856,11.468,0.856,14.343V300h-25V161h21.9  l2.523,15.359c2.607-6.093,6.559-10.935,11.856-14.279c5.297-3.342,11.646-5.077,19.045-5.077  C988.174,157.003,990.066,157.067,992,157.321z" class="v_r"/><path fill="#666666" d="M112,252h22v24h-22V252z M112,209h22v-24h-22V209z" class="v_colon"/><path fill="#666666" d="M563,300h-25v-84.363c0-9.562,0.275-16.838,0.529-21.832c0-3.046-0.137-5.521-0.56-7.425  c-0.424-1.904-1.316-3.871-2.753-5.902c-1.439-2.031-3.786-3.533-7.083-4.506c-3.297-0.971-7.517-1.46-12.673-1.46  c-5.665,0-10.416,0.361-14.262,1.079c-3.849,0.719-6.93,1.694-9.255,2.919c-2.327,1.227-4.12,2.983-5.389,5.268  c-1.268,2.285-2.092,4.677-2.472,7.172c-0.38,2.496-0.57,5.733-0.57,9.71c0,1.862,0.118,5.185,0.244,9.964  c0.127,4.781,0.244,8.652,0.244,11.614V300h-25v-88.932c0-0.423,0-1.015,0-1.777c0-5.754-0.09-9.879-0.172-12.376  c-0.085-2.495-0.424-5.414-0.974-8.758c-0.551-3.342-1.364-5.604-2.421-6.791c-1.059-1.185-2.69-2.454-4.888-3.808  c-2.2-1.352-4.866-2.2-7.992-2.539c-3.128-0.337-7.103-0.508-11.922-0.508c-3.044,0-5.942,0.19-8.688,0.571  c-2.748,0.381-5.39,0.996-7.926,1.84c-2.536,0.846-4.61,2.075-6.214,3.681c-1.606,1.608-2.262,3.512-2.345,5.712  C404.358,197.571,404,209.926,404,223.38V300h-25V161h22.46l2.41,15.197c3.38-6.854,8.243-11.737,14.584-14.614  c6.341-2.875,14.373-4.324,24.095-4.324c9.554,0,17.163,1.519,22.827,4.565c5.663,3.046,9.807,8.038,12.428,14.976  c6.764-13.201,20.12-19.802,40.074-19.802c6.51,0,12.067,0.361,16.677,1.078c4.608,0.719,8.643,2.052,12.111,3.998  c3.466,1.948,6.233,4.273,8.307,6.981c2.071,2.71,3.741,6.327,5.009,10.852c1.268,4.527,1.995,9.5,2.46,14.914  c0.463,5.416,0.558,12.058,0.558,19.928V300z" class="v_m"/><rect x="1016" y="276" fill="#666666" width="112" height="24" class="v_caret"/><polygon fill="#333333" points="306,112 244.386,300 217.98,300 158,112 185.035,112 231.686,267.424 278.336,112 " class="v_v"/><path fill="#333333" d="M355,112v22h-24v-22H355z M355,161h-24v139h24V161z" class="v_i"/></svg>